<?xml version="1.0" standalone="no"?>
<!DOCTYPE svg PUBLIC "-//W3C//DTD SVG 20010904//EN"
 "http://www.w3.org/TR/2001/REC-SVG-20010904/DTD/svg10.dtd">
<svg version="1.0" xmlns="http://www.w3.org/2000/svg"
 width="500.000000pt" height="500.000000pt" viewBox="0 0 500.000000 500.000000"
 preserveAspectRatio="xMidYMid meet">
<metadata>
Created by potrace 1.14, written by Peter Selinger 2001-2017
</metadata>
<g transform="translate(0.000000,500.000000) scale(0.100000,-0.100000)"
fill="#000000" stroke="none">
<path d="M2340 4813 c-44 -4 -213 -23 -249 -29 -72 -13 -283 -69 -359 -96
-534 -187 -947 -526 -1260 -1033 -129 -210 -250 -548 -288 -805 -3 -19 -7 -41
-9 -48 -8 -23 -19 -225 -19 -342 1 -133 10 -262 24 -340 5 -30 12 -71 15 -90
33 -198 145 -505 258 -705 113 -199 236 -357 411 -530 168 -166 366 -307 591
-422 83 -42 294 -128 336 -137 13 -3 55 -14 92 -25 38 -11 81 -22 95 -25 260
-47 261 -47 492 -51 234 -4 321 4 540 51 602 129 1147 517 1477 1049 180 290
288 594 336 945 25 181 16 534 -17 705 -3 17 -8 44 -11 60 -31 175 -133 455
-234 640 -269 498 -725 895 -1244 1085 -141 51 -327 101 -432 116 -27 3 -59 8
-70 10 -71 13 -374 24 -475 17z"/>
</g>
</svg>
